<?xml version="1.0" standalone="no"?>
<!DOCTYPE svg PUBLIC "-//W3C//DTD SVG 20010904//EN"
 "http://www.w3.org/TR/2001/REC-SVG-20010904/DTD/svg10.dtd">
<svg version="1.0" xmlns="http://www.w3.org/2000/svg"
 width="400.000000pt" height="400.000000pt" viewBox="0 0 400.000000 400.000000"
 preserveAspectRatio="xMidYMid meet">
<metadata>
Created by potrace 1.11, written by Peter Selinger 2001-2013
</metadata>
<g transform="translate(0.000000,400.000000) scale(0.100000,-0.100000)"
fill="#000000" stroke="none">
<path d="M1824 3962 c4 -7 1 -12 -6 -13 -7 0 -31 -2 -53 -5 -22 -3 -58 -7 -80
-9 -22 -1 -40 -4 -40 -5 0 -1 -32 -8 -67 -13 -10 -2 -21 -6 -24 -10 -4 -4 -14
-1 -22 6 -11 8 -14 8 -9 0 4 -6 3 -14 -2 -17 -5 -4 -13 -1 -17 5 -5 8 -8 8
-13 0 -7 -11 -40 -22 -73 -24 -10 -1 -18 -5 -18 -10 0 -5 -6 -7 -14 -4 -8 3
-16 1 -18 -4 -2 -5 -13 -11 -26 -12 -12 0 -22 -5 -22 -10 0 -4 -4 -5 -10 -2
-5 3 -10 2 -10 -4 0 -5 -11 -8 -25 -7 -13 2 -22 0 -19 -5 2 -4 -14 -13 -36
-20 -22 -7 -40 -16 -40 -21 0 -5 -4 -6 -10 -3 -5 3 -10 1 -10 -5 0 -6 -4 -8
-10 -5 -5 3 -10 1 -10 -5 0 -6 -4 -9 -9 -6 -5 4 -24 -6 -43 -21 -22 -18 -28
-21 -18 -8 11 15 8 14 -12 -4 -16 -14 -32 -20 -40 -15 -7 4 -10 4 -6 -1 8 -8
-53 -55 -71 -55 -6 0 -11 -4 -11 -10 0 -5 -7 -10 -15 -10 -9 0 -18 -7 -21 -15
-4 -8 -10 -15 -16 -15 -5 0 -16 -7 -25 -15 -8 -8 -19 -12 -25 -9 -7 4 -8 2 -4
-4 4 -7 1 -12 -9 -12 -10 0 -13 -5 -9 -12 5 -8 2 -9 -10 -5 -9 4 -15 3 -12 -1
6 -10 -85 -88 -96 -85 -5 2 -8 -4 -8 -13 0 -8 -4 -12 -10 -9 -5 3 -10 1 -10
-4 0 -6 -26 -39 -59 -72 -84 -88 -96 -103 -93 -113 2 -5 -4 -6 -13 -2 -10 3
-14 2 -9 -5 3 -6 -2 -19 -12 -29 -31 -31 -44 -49 -44 -59 0 -6 -9 -15 -20 -21
-11 -6 -18 -15 -15 -21 4 -5 -1 -12 -9 -15 -9 -3 -14 -9 -11 -14 2 -4 -5 -17
-16 -28 -11 -12 -17 -22 -14 -22 4 0 -2 -12 -13 -27 -10 -16 -22 -36 -25 -45
-4 -10 -11 -18 -16 -18 -6 0 -8 -7 -5 -15 4 -8 -1 -17 -10 -21 -9 -3 -14 -9
-12 -13 3 -4 -6 -27 -19 -53 -13 -25 -20 -49 -17 -53 4 -4 0 -12 -8 -18 -15
-12 -22 -29 -23 -54 0 -7 -4 -13 -9 -13 -4 0 -7 -3 -7 -7 1 -5 0 -11 -1 -15
-1 -5 -4 -12 -5 -18 -1 -5 -4 -12 -5 -15 -1 -3 -4 -9 -5 -15 -1 -5 -3 -11 -5
-12 -1 -2 -3 -10 -5 -18 -1 -8 -11 -44 -20 -80 -10 -36 -19 -74 -21 -85 -2
-11 -6 -33 -10 -50 -4 -16 -7 -40 -7 -52 -1 -13 -4 -23 -7 -23 -3 0 -5 -17 -4
-37 1 -21 -2 -44 -8 -50 -7 -9 -7 -13 1 -13 7 0 9 -5 5 -12 -4 -7 -9 -33 -9
-58 -1 -25 -3 -49 -5 -55 -1 -5 -1 -12 0 -15 1 -3 3 -42 4 -87 1 -45 5 -85 9
-89 4 -4 2 -13 -4 -21 -7 -7 -7 -13 -2 -13 5 0 11 -23 12 -51 1 -28 6 -60 12
-70 7 -14 6 -19 -3 -19 -8 0 -9 -3 -3 -8 6 -4 10 -14 10 -22 -1 -8 1 -19 4
-25 5 -10 10 -35 13 -67 1 -10 6 -18 11 -18 4 0 7 -8 6 -17 -1 -10 1 -25 4
-33 4 -8 8 -25 10 -37 2 -12 6 -26 10 -29 4 -4 7 -18 7 -31 0 -16 4 -22 12
-17 7 5 9 2 5 -9 -3 -8 1 -21 9 -28 9 -7 13 -21 11 -31 -3 -10 -1 -18 3 -18 5
0 12 -15 15 -34 4 -19 15 -43 24 -53 10 -10 17 -30 17 -45 -1 -17 3 -24 11
-21 7 3 13 -2 13 -12 0 -9 7 -23 15 -32 8 -8 13 -19 10 -24 -4 -5 -2 -9 3 -9
4 0 14 -16 22 -35 7 -19 17 -32 22 -29 4 3 8 0 8 -7 0 -16 50 -91 67 -102 7
-4 13 -15 13 -22 0 -8 5 -15 10 -15 6 0 10 -7 10 -15 0 -8 5 -15 10 -15 6 0
15 -11 22 -25 6 -13 15 -22 19 -19 5 3 9 -2 9 -10 0 -9 5 -16 11 -16 5 0 7 -5
4 -10 -4 -6 -3 -9 2 -8 10 3 83 -70 83 -84 0 -5 4 -6 10 -3 6 3 10 -4 11 -17
0 -13 3 -17 6 -10 4 10 11 5 24 -15 10 -15 19 -24 19 -19 0 4 13 -6 29 -23 16
-17 34 -31 40 -31 6 0 15 -9 21 -20 6 -11 16 -20 23 -20 7 0 19 -9 27 -20 8
-11 20 -20 27 -20 6 0 18 -8 25 -17 7 -10 20 -19 28 -21 8 -2 17 -8 18 -13 2
-5 10 -9 18 -9 8 0 14 -4 14 -10 0 -5 7 -10 15 -10 7 0 18 -7 23 -16 5 -9 11
-16 13 -15 14 2 49 -13 49 -21 0 -5 4 -7 9 -3 5 3 17 -2 25 -11 9 -8 16 -12
16 -8 0 4 7 -1 16 -12 8 -10 12 -13 9 -6 -6 11 -3 11 13 1 12 -7 19 -16 16
-20 -2 -4 4 -5 14 -2 11 2 26 -3 36 -12 9 -9 16 -14 16 -11 0 3 19 -3 42 -14
23 -10 46 -16 50 -14 5 3 11 -1 14 -9 3 -9 13 -13 25 -10 12 3 19 0 19 -8 0
-12 2 -12 9 -1 7 11 9 11 14 -2 4 -9 13 -13 22 -10 8 3 15 1 15 -4 0 -6 9 -9
20 -7 11 2 20 1 20 -3 0 -4 8 -8 18 -9 9 -1 28 -4 42 -7 68 -15 87 -18 110
-21 14 -2 25 -4 25 -5 0 -1 14 -4 30 -5 17 -2 48 -6 70 -9 22 -3 65 -7 95 -7
30 -1 61 -6 69 -13 11 -8 13 -8 8 0 -8 13 71 13 93 -1 8 -5 11 -4 6 3 -4 7 8
10 39 8 25 -1 47 0 50 3 3 3 25 6 48 8 23 1 60 5 82 8 22 3 48 6 58 6 9 0 15
3 13 7 -2 4 8 7 22 6 15 -1 32 1 37 5 6 3 17 6 25 7 8 0 23 4 33 9 10 4 20 5
23 2 3 -2 22 3 42 13 20 10 46 17 59 15 12 -1 20 1 18 5 -3 4 17 13 43 21 26
7 47 11 48 8 0 -2 8 4 18 14 10 9 22 15 27 12 5 -4 9 -1 9 5 0 6 4 9 9 6 5 -3
14 1 21 9 7 8 20 15 29 15 9 0 29 9 45 19 17 11 33 18 38 15 4 -3 8 -1 8 4 0
5 18 17 40 27 22 10 40 22 40 26 0 6 33 22 50 24 3 0 15 10 28 22 12 13 26 23
31 23 4 0 19 10 33 23 41 36 68 57 68 53 0 -6 72 58 137 122 29 28 58 52 63
52 6 0 9 6 8 13 -2 6 3 11 10 9 8 -1 11 2 7 8 -3 6 7 22 24 36 17 14 31 32 31
40 0 9 5 12 10 9 6 -3 10 -2 10 3 0 5 9 19 20 32 11 12 17 27 13 33 -3 5 -2 7
4 4 5 -3 25 18 44 48 18 29 38 51 43 48 5 -4 6 -1 3 5 -10 14 3 44 17 39 6 -3
12 7 13 21 0 15 6 28 12 30 5 2 15 19 21 38 6 19 15 34 20 34 7 0 14 18 22 57
1 5 8 14 15 21 7 8 11 18 8 23 -4 5 -1 9 5 9 7 0 10 7 6 15 -3 8 -2 15 3 15 5
0 11 14 15 31 3 17 10 28 15 25 5 -4 8 2 6 11 -1 10 2 24 8 31 5 6 7 12 3 12
-4 0 0 13 9 30 8 16 15 32 15 35 0 3 0 6 1 8 1 3 9 35 12 50 1 6 5 17 8 22 4
6 5 18 4 28 -2 9 1 17 5 17 5 0 7 9 5 20 -2 11 0 22 5 25 5 3 7 12 4 20 -3 8
-2 20 2 27 4 7 9 19 10 28 1 8 5 49 10 90 16 156 5 500 -18 544 -8 14 -7 17 3
11 8 -6 10 -4 3 6 -11 17 -15 36 -17 72 -1 15 -5 27 -9 27 -4 0 -5 7 -2 15 4
8 1 15 -5 15 -6 0 -8 7 -5 15 3 8 2 20 -2 27 -8 13 -13 29 -16 60 -1 9 -6 14
-10 12 -7 -5 -13 28 -9 50 1 5 -3 12 -9 16 -6 4 -13 13 -14 21 -4 18 -15 46
-34 89 -9 19 -16 43 -16 52 1 9 -4 16 -10 15 -6 -1 -12 8 -14 21 -2 12 -8 22
-13 22 -6 0 -8 4 -4 9 3 5 -1 16 -9 23 -7 8 -24 34 -36 59 -13 24 -28 47 -34
51 -6 4 -7 8 -3 8 9 0 -43 73 -55 78 -5 2 -8 9 -8 15 0 7 -15 30 -34 52 -19
22 -32 43 -29 47 2 5 -1 7 -9 6 -7 -2 -12 5 -12 14 1 10 -2 15 -7 12 -5 -3 -9
0 -9 6 0 6 -4 8 -10 5 -9 -6 -14 8 -11 28 0 4 -3 7 -8 7 -11 0 -111 101 -111
112 0 5 -6 8 -13 8 -7 0 -19 9 -27 20 -8 11 -18 20 -22 20 -4 0 -20 12 -35 28
-16 15 -45 39 -65 52 -21 14 -38 28 -38 33 0 4 -7 7 -15 7 -8 0 -15 5 -15 10
0 6 -7 10 -15 10 -8 0 -15 5 -15 10 0 6 -7 10 -16 10 -9 0 -12 5 -8 12 4 6 3
8 -3 5 -12 -8 -65 27 -56 37 4 4 0 4 -9 1 -10 -4 -25 2 -37 14 -12 12 -21 19
-21 16 0 -3 -21 6 -47 19 -25 14 -51 22 -56 19 -6 -3 -7 -1 -3 5 4 8 0 12 -11
12 -10 0 -27 7 -37 15 -10 8 -23 12 -27 9 -5 -3 -9 0 -9 6 0 6 -4 9 -9 5 -5
-3 -12 -1 -16 5 -4 6 -11 8 -16 5 -5 -4 -9 -1 -9 5 0 7 -7 9 -15 6 -9 -3 -18
0 -21 7 -3 8 -15 13 -27 12 -12 -1 -31 3 -42 8 -11 6 -24 12 -30 13 -5 1 -36
9 -67 17 -31 8 -59 12 -62 9 -3 -3 -6 1 -6 9 0 11 -2 11 -10 -1 -5 -8 -10 -10
-10 -4 0 6 -6 11 -12 11 -7 1 -33 4 -58 8 -25 4 -59 8 -77 9 -18 1 -35 5 -39
8 -3 4 -12 4 -20 1 -8 -3 -14 1 -14 8 0 10 -3 11 -8 3 -7 -12 -82 -14 -82 -3
0 7 -38 5 -46 -3 -3 -4 -17 -3 -30 2 -16 6 -24 6 -24 -1 0 -6 -6 -7 -12 -3
-16 10 -48 13 -48 4 0 -9 -53 -6 -69 4 -10 6 -12 5 -7 -2z"/>
</g>
</svg>
